<?xml version="1.0" encoding="UTF-8"?>
<svg xmlns="http://www.w3.org/2000/svg" xmlns:xlink="http://www.w3.org/1999/xlink" width="64px" height="64px" viewBox="0 0 64 64" version="1.1">
<g id="surface1">
<path style=" stroke:none;fill-rule:nonzero;fill:rgb(100%,100%,100%);fill-opacity:1;" d="M 57.375 64.074219 C 57.199219 64.074219 57.023438 64.074219 56.8125 64.046875 C 56.570312 63.929688 56.363281 63.824219 56.1875 64.074219 C 56.007812 64.074219 55.832031 64.074219 55.621094 64.046875 C 55.378906 63.933594 55.171875 63.832031 54.996094 64.074219 C 54.820312 64.074219 54.644531 64.074219 54.429688 64.046875 C 54.199219 64.039062 54 64.054688 53.804688 64.074219 C 35.941406 64.074219 18.078125 64.074219 0.175781 64.058594 C 0.117188 64.019531 0.0976562 64.007812 0.0742188 64 C 0.0742188 42.695312 0.0742188 21.390625 0.0742188 0.0820312 C 21.402344 0.0820312 42.726562 0.0820312 64.0625 0.0820312 C 64.0625 21.410156 64.0625 42.742188 64.0625 64.074219 C 62.703125 64.074219 61.339844 64.074219 59.933594 64.046875 C 59.863281 63.992188 59.839844 63.949219 59.8125 63.949219 C 59.058594 63.941406 58.304688 63.9375 57.550781 63.945312 C 57.492188 63.945312 57.433594 64.03125 57.375 64.074219 M 2.410156 27.894531 C 2.398438 28.132812 2.394531 28.371094 2.378906 28.609375 C 2.335938 29.292969 2.152344 29.941406 1.554688 30.335938 C 1.160156 30.597656 1.015625 30.925781 1.03125 31.367188 C 1.039062 31.59375 1.039062 31.820312 1.039062 32.042969 C 1.039062 32.394531 1.160156 32.667969 1.464844 32.863281 C 1.910156 33.152344 2.140625 33.597656 2.222656 34.105469 C 2.378906 35.042969 2.496094 35.984375 2.640625 36.921875 C 2.6875 37.214844 2.746094 37.511719 2.847656 37.792969 C 3.757812 40.367188 4.667969 42.945312 5.601562 45.511719 C 5.753906 45.933594 5.765625 46.332031 5.683594 46.757812 C 5.457031 47.90625 5.804688 48.6875 6.851562 49.101562 C 7.820312 49.484375 8.585938 50.09375 9.226562 50.894531 C 9.445312 51.167969 9.675781 51.429688 9.902344 51.695312 C 10.828125 52.785156 11.664062 53.964844 12.90625 54.738281 C 13.167969 54.902344 13.40625 55.105469 13.648438 55.300781 C 15.921875 57.09375 18.300781 58.699219 20.972656 59.839844 C 23.242188 60.808594 25.585938 61.488281 28.039062 61.742188 C 28.996094 61.84375 29.90625 61.953125 30.652344 62.707031 C 31.773438 63.839844 32.5 63.800781 33.609375 62.632812 C 34.003906 62.21875 34.46875 61.953125 35.007812 61.835938 C 36.011719 61.613281 37.015625 61.40625 38.027344 61.21875 C 40.269531 60.800781 42.460938 60.222656 44.550781 59.265625 C 48.917969 57.265625 52.5625 54.359375 55.425781 50.46875 C 55.988281 49.703125 56.671875 49.117188 57.636719 48.933594 C 57.789062 48.902344 57.960938 48.726562 58.03125 48.574219 C 58.398438 47.820312 58.710938 47.050781 58.722656 46.1875 C 58.726562 45.90625 58.796875 45.613281 58.898438 45.355469 C 59.257812 44.449219 59.667969 43.566406 60.019531 42.660156 C 60.980469 40.207031 61.703125 37.695312 61.851562 35.042969 C 61.902344 34.089844 62.167969 33.226562 62.992188 32.625 C 63.136719 32.519531 63.210938 32.257812 63.230469 32.058594 C 63.261719 31.75 63.230469 31.433594 63.210938 31.125 C 63.191406 30.820312 63.050781 30.597656 62.789062 30.417969 C 62.25 30.039062 61.953125 29.488281 61.910156 28.835938 C 61.796875 27.121094 61.515625 25.433594 61.085938 23.773438 C 60.125 20.0625 58.492188 16.671875 56.226562 13.601562 C 55.710938 12.902344 55.363281 12.230469 55.421875 11.316406 C 55.503906 10.101562 54.578125 9.234375 53.375 9.347656 C 52.796875 9.402344 52.351562 9.238281 51.90625 8.890625 C 50.140625 7.496094 48.382812 6.097656 46.402344 5.003906 C 41.277344 2.179688 35.851562 0.84375 30.007812 1.351562 C 27.644531 1.554688 25.324219 1.988281 23.070312 2.734375 C 19.3125 3.980469 15.890625 5.835938 12.9375 8.53125 C 12.1875 9.214844 11.332031 9.636719 10.269531 9.53125 C 9.695312 9.472656 8.96875 10.253906 9.011719 10.847656 C 9.066406 11.652344 8.878906 12.390625 8.453125 13.0625 C 8.117188 13.589844 7.746094 14.09375 7.394531 14.605469 C 4.640625 18.589844 3.039062 23.019531 2.410156 27.894531 Z M 2.410156 27.894531 "/>
<path style=" stroke:none;fill-rule:nonzero;fill:rgb(70.19608%,70.19608%,69.803923%);fill-opacity:1;" d="M 57.410156 64.074219 C 57.433594 64.03125 57.492188 63.945312 57.550781 63.945312 C 58.304688 63.9375 59.058594 63.941406 59.8125 63.949219 C 59.839844 63.949219 59.863281 63.992188 59.898438 64.046875 C 59.085938 64.074219 58.265625 64.074219 57.410156 64.074219 Z M 57.410156 64.074219 "/>
<path style=" stroke:none;fill-rule:nonzero;fill:rgb(70.19608%,70.19608%,69.803923%);fill-opacity:1;" d="M 56.21875 64.074219 C 56.363281 63.824219 56.570312 63.929688 56.78125 64.046875 C 56.605469 64.074219 56.429688 64.074219 56.21875 64.074219 Z M 56.21875 64.074219 "/>
<path style=" stroke:none;fill-rule:nonzero;fill:rgb(70.19608%,70.19608%,69.803923%);fill-opacity:1;" d="M 55.027344 64.074219 C 55.171875 63.832031 55.378906 63.933594 55.589844 64.046875 C 55.414062 64.074219 55.238281 64.074219 55.027344 64.074219 Z M 55.027344 64.074219 "/>
<path style=" stroke:none;fill-rule:nonzero;fill:rgb(2.745098%,46.666667%,70.980394%);fill-opacity:1;" d="M 2.414062 27.859375 C 3.039062 23.019531 4.640625 18.589844 7.394531 14.605469 C 7.746094 14.09375 8.117188 13.589844 8.453125 13.0625 C 8.878906 12.390625 9.066406 11.652344 9.011719 10.847656 C 8.96875 10.253906 9.695312 9.472656 10.269531 9.53125 C 11.332031 9.636719 12.1875 9.214844 12.9375 8.53125 C 15.890625 5.835938 19.3125 3.980469 23.070312 2.734375 C 25.324219 1.988281 27.644531 1.554688 30.007812 1.351562 C 35.851562 0.84375 41.277344 2.179688 46.402344 5.003906 C 48.382812 6.097656 50.140625 7.496094 51.90625 8.890625 C 52.351562 9.238281 52.796875 9.402344 53.375 9.347656 C 54.578125 9.234375 55.503906 10.101562 55.421875 11.316406 C 55.363281 12.230469 55.710938 12.902344 56.226562 13.601562 C 58.492188 16.671875 60.125 20.0625 61.085938 23.773438 C 61.515625 25.433594 61.796875 27.121094 61.910156 28.835938 C 61.953125 29.488281 62.25 30.039062 62.789062 30.417969 C 63.050781 30.597656 63.191406 30.820312 63.210938 31.125 C 63.230469 31.433594 63.261719 31.75 63.230469 32.058594 C 63.210938 32.257812 63.136719 32.519531 62.992188 32.625 C 62.167969 33.226562 61.902344 34.089844 61.851562 35.042969 C 61.703125 37.695312 60.980469 40.207031 60.019531 42.660156 C 59.667969 43.566406 59.257812 44.449219 58.898438 45.355469 C 58.796875 45.613281 58.726562 45.90625 58.722656 46.1875 C 58.710938 47.050781 58.398438 47.820312 58.03125 48.574219 C 57.960938 48.726562 57.789062 48.902344 57.636719 48.933594 C 56.671875 49.117188 55.988281 49.703125 55.425781 50.46875 C 52.5625 54.359375 48.917969 57.265625 44.550781 59.265625 C 42.460938 60.222656 40.269531 60.800781 38.027344 61.21875 C 37.015625 61.40625 36.011719 61.613281 35.007812 61.835938 C 34.46875 61.953125 34.003906 62.21875 33.609375 62.632812 C 32.5 63.800781 31.773438 63.839844 30.652344 62.707031 C 29.90625 61.953125 28.996094 61.84375 28.039062 61.742188 C 25.585938 61.488281 23.242188 60.808594 20.972656 59.839844 C 18.300781 58.699219 15.921875 57.09375 13.648438 55.300781 C 13.40625 55.105469 13.167969 54.902344 12.90625 54.738281 C 11.664062 53.964844 10.828125 52.785156 9.902344 51.695312 C 9.675781 51.429688 9.445312 51.167969 9.226562 50.894531 C 8.585938 50.09375 7.820312 49.484375 6.851562 49.101562 C 5.804688 48.6875 5.457031 47.90625 5.683594 46.757812 C 5.765625 46.332031 5.753906 45.933594 5.601562 45.511719 C 4.667969 42.945312 3.757812 40.367188 2.847656 37.792969 C 2.746094 37.511719 2.6875 37.214844 2.640625 36.921875 C 2.496094 35.984375 2.378906 35.042969 2.222656 34.105469 C 2.140625 33.597656 1.910156 33.152344 1.464844 32.863281 C 1.160156 32.667969 1.039062 32.394531 1.039062 32.042969 C 1.039062 31.820312 1.039062 31.59375 1.03125 31.367188 C 1.015625 30.925781 1.160156 30.597656 1.554688 30.335938 C 2.152344 29.941406 2.335938 29.292969 2.378906 28.609375 C 2.394531 28.371094 2.398438 28.132812 2.414062 27.859375 M 46.273438 56.5625 C 46.421875 56.480469 46.566406 56.398438 46.753906 56.292969 C 46.65625 56.1875 46.585938 56.109375 46.480469 55.996094 C 46.363281 56.214844 46.277344 56.371094 46.164062 56.550781 C 46.167969 56.570312 46.171875 56.589844 46.179688 56.609375 C 46.191406 56.59375 46.207031 56.578125 46.273438 56.5625 M 47.253906 17.703125 C 47.234375 17.707031 47.21875 17.710938 47.199219 17.714844 C 47.210938 17.734375 47.222656 17.753906 47.234375 17.832031 C 47.429688 18.777344 47.652344 19.710938 47.8125 20.660156 C 48.191406 22.886719 48.550781 25.121094 48.898438 27.355469 C 49.023438 28.179688 49.097656 29.011719 49.210938 29.972656 C 49.433594 29.800781 49.609375 29.71875 49.714844 29.578125 C 50.238281 28.898438 50.683594 28.140625 51.269531 27.519531 C 52.179688 26.558594 52.566406 25.417969 52.671875 24.136719 C 52.722656 23.488281 52.632812 22.894531 52.140625 22.410156 C 51.257812 21.535156 50.402344 20.625 49.503906 19.761719 C 48.78125 19.0625 48.015625 18.410156 47.253906 17.703125 M 17.636719 45.648438 C 17.652344 45.644531 17.671875 45.640625 17.6875 45.636719 C 17.675781 45.609375 17.667969 45.582031 17.648438 45.5 C 17.597656 45.375 17.53125 45.253906 17.503906 45.121094 C 17.359375 44.414062 17.234375 43.699219 17.082031 42.992188 C 16.574219 40.613281 16.058594 38.234375 15.546875 35.855469 C 15.378906 35.09375 15.210938 34.328125 15.03125 33.496094 C 14.300781 34.40625 13.585938 35.238281 12.933594 36.121094 C 12.097656 37.25 11.664062 38.523438 11.917969 39.957031 C 11.972656 40.246094 12.082031 40.585938 12.28125 40.777344 C 13.78125 42.199219 15.304688 43.59375 16.828125 44.992188 C 17.074219 45.21875 17.34375 45.414062 17.636719 45.648438 M 17.191406 36.210938 C 17.226562 36.460938 17.246094 36.710938 17.292969 36.953125 C 17.753906 39.257812 18.214844 41.558594 18.691406 43.859375 C 18.878906 44.773438 19.261719 45.585938 20.136719 46.015625 C 20.496094 46.195312 20.589844 46.425781 20.542969 46.789062 C 20.433594 47.710938 20.59375 48.589844 21.011719 49.40625 C 22.109375 51.546875 23.363281 53.585938 24.886719 55.441406 C 26.34375 57.21875 28.046875 58.691406 30.070312 59.769531 C 31.003906 60.265625 31.394531 60.042969 31.402344 58.988281 C 31.417969 56.359375 31.414062 53.726562 31.417969 51.09375 C 31.417969 50.308594 31.417969 49.523438 31.417969 48.726562 C 31.910156 48.726562 32.347656 48.726562 32.808594 48.726562 C 32.808594 48.886719 32.808594 49.007812 32.808594 49.132812 C 32.8125 52.316406 32.816406 55.5 32.824219 58.683594 C 32.828125 59.875 33.496094 60.269531 34.519531 59.671875 C 35.0625 59.351562 35.601562 59.007812 36.113281 58.636719 C 39.257812 56.347656 41.46875 53.292969 43.160156 49.816406 C 43.253906 49.621094 43.292969 49.386719 43.316406 49.167969 C 43.398438 48.457031 43.441406 47.746094 43.542969 47.039062 C 43.578125 46.816406 43.703125 46.511719 43.878906 46.421875 C 44.703125 46.003906 45.1875 45.328125 45.46875 44.480469 C 46.070312 42.652344 47.042969 41.007812 47.96875 39.34375 C 48.011719 39.265625 48.148438 39.238281 48.242188 39.1875 C 48.285156 39.285156 48.335938 39.382812 48.367188 39.484375 C 48.378906 39.527344 48.347656 39.582031 48.332031 39.628906 C 47.828125 41.515625 47.324219 43.402344 46.824219 45.289062 C 46.792969 45.398438 46.777344 45.511719 46.757812 45.625 C 46.789062 45.640625 46.820312 45.660156 46.851562 45.675781 C 47.253906 45.296875 47.65625 44.917969 48.066406 44.542969 C 49.359375 43.375 50.65625 42.210938 51.949219 41.046875 C 52.726562 40.347656 53.058594 39.046875 52.609375 38.125 C 52.160156 37.195312 51.664062 36.28125 51.113281 35.410156 C 50.578125 34.566406 49.851562 33.882812 48.96875 33.285156 C 48.96875 33.464844 48.976562 33.585938 48.96875 33.703125 C 48.957031 33.839844 48.941406 33.976562 48.90625 34.109375 C 48.800781 34.480469 48.625 34.578125 48.246094 34.539062 C 47.863281 34.5 47.683594 34.285156 47.550781 33.933594 C 46.945312 32.367188 46.695312 32.210938 45.039062 32.273438 C 44.671875 32.285156 44.308594 32.320312 43.921875 32.34375 C 43.953125 31.847656 43.980469 31.40625 44.007812 30.933594 C 44.15625 30.933594 44.277344 30.9375 44.398438 30.933594 C 45.117188 30.910156 45.839844 30.933594 46.550781 30.851562 C 47.320312 30.769531 47.597656 30.453125 47.542969 29.683594 C 47.453125 28.476562 47.324219 27.265625 47.132812 26.070312 C 46.777344 23.8125 46.339844 21.566406 45.988281 19.308594 C 45.847656 18.414062 45.480469 17.703125 44.777344 17.15625 C 44.441406 16.894531 44.113281 16.625 43.816406 16.324219 C 43.355469 15.851562 43.355469 15.742188 43.667969 15.164062 C 43.714844 15.078125 43.761719 14.988281 43.8125 14.902344 C 44.152344 14.289062 44.132812 13.699219 43.746094 13.101562 C 43.230469 12.304688 42.753906 11.484375 42.25 10.683594 C 41.152344 8.941406 40.089844 7.179688 38.941406 5.472656 C 38.15625 4.316406 37.101562 3.441406 35.730469 3.039062 C 34.738281 2.75 33.738281 2.761719 32.726562 3.035156 C 32.726562 7.277344 32.726562 11.484375 32.726562 15.710938 C 32.5625 15.753906 32.410156 15.792969 32.230469 15.835938 C 32.019531 15.332031 31.734375 14.863281 31.640625 14.363281 C 31.496094 13.582031 31.425781 12.777344 31.417969 11.984375 C 31.394531 9.527344 31.417969 7.070312 31.425781 4.613281 C 31.425781 4.054688 31.425781 3.492188 31.425781 2.921875 C 31.273438 2.898438 31.164062 2.875 31.054688 2.867188 C 28.964844 2.738281 27.199219 3.40625 25.761719 4.980469 C 24.222656 6.667969 22.945312 8.539062 21.859375 10.542969 C 21.351562 11.472656 20.882812 12.425781 20.460938 13.394531 C 20.023438 14.40625 20.199219 14.933594 21.070312 15.605469 C 21.175781 15.6875 21.28125 15.769531 21.472656 15.917969 C 21.109375 16.171875 20.820312 16.476562 20.46875 16.59375 C 19.371094 16.964844 18.71875 17.699219 18.523438 18.832031 C 18.332031 19.949219 18.042969 21.027344 17.492188 22.019531 C 17.046875 22.820312 16.527344 23.5625 15.847656 24.28125 C 16.316406 22.132812 16.765625 20.0625 17.234375 17.910156 C 17.085938 18.015625 17 18.058594 16.929688 18.125 C 15.605469 19.367188 14.296875 20.632812 12.953125 21.855469 C 12.3125 22.4375 11.980469 23.136719 11.929688 23.984375 C 11.890625 24.65625 11.8125 25.347656 12.175781 25.960938 C 12.648438 26.757812 13.109375 27.566406 13.65625 28.300781 C 14.085938 28.878906 14.640625 29.355469 15.195312 29.933594 C 15.28125 29.460938 15.34375 29.121094 15.402344 28.789062 C 15.9375 28.789062 16.441406 28.789062 16.96875 28.789062 C 16.96875 29.070312 16.953125 29.320312 16.96875 29.570312 C 17.019531 30.351562 17.484375 30.832031 18.261719 30.910156 C 18.46875 30.929688 18.679688 30.925781 18.890625 30.933594 C 19.335938 30.945312 19.78125 30.949219 20.226562 30.980469 C 20.316406 30.988281 20.46875 31.097656 20.472656 31.167969 C 20.496094 31.546875 20.484375 31.929688 20.484375 32.332031 C 20.195312 32.332031 19.960938 32.328125 19.726562 32.335938 C 19.136719 32.359375 18.539062 32.359375 17.949219 32.425781 C 17.3125 32.496094 16.949219 32.886719 16.972656 33.53125 C 17 34.402344 17.109375 35.273438 17.191406 36.210938 M 14.8125 8.839844 C 14.195312 9.363281 13.566406 9.871094 12.96875 10.414062 C 12.269531 11.046875 12.308594 11.710938 13.085938 12.242188 C 13.628906 12.609375 14.203125 12.9375 14.789062 13.230469 C 15.382812 13.527344 16.007812 13.765625 16.625 14.015625 C 16.960938 14.152344 17.289062 14.109375 17.625 13.953125 C 18.449219 13.578125 19.058594 12.980469 19.496094 12.195312 C 19.820312 11.605469 20.109375 10.996094 20.449219 10.414062 C 21.636719 8.394531 22.839844 6.382812 24.039062 4.367188 C 24.101562 4.257812 24.15625 4.144531 24.269531 3.9375 C 20.761719 5.007812 17.660156 6.613281 14.8125 8.839844 M 42.558594 4.863281 C 41.683594 4.5 40.808594 4.136719 39.867188 3.746094 C 39.988281 3.941406 40.0625 4.070312 40.140625 4.195312 C 41.367188 6.179688 42.597656 8.15625 43.8125 10.148438 C 44.355469 11.039062 44.84375 11.96875 45.394531 12.859375 C 45.777344 13.476562 46.328125 13.933594 47.007812 14.195312 C 47.1875 14.261719 47.449219 14.253906 47.625 14.175781 C 48.535156 13.75 49.429688 13.300781 50.324219 12.84375 C 50.632812 12.683594 50.9375 12.507812 51.210938 12.300781 C 51.957031 11.730469 51.980469 11.09375 51.292969 10.453125 C 51.210938 10.378906 51.125 10.304688 51.035156 10.238281 C 50.375 9.730469 49.722656 9.214844 49.046875 8.726562 C 47.019531 7.25 44.953125 5.828125 42.558594 4.863281 M 20.300781 51.042969 C 20.078125 50.71875 19.921875 50.300781 19.621094 50.085938 C 18.929688 49.589844 18.171875 49.183594 17.433594 48.757812 C 17.167969 48.605469 16.90625 48.636719 16.625 48.789062 C 15.5625 49.351562 14.492188 49.894531 13.421875 50.445312 C 13.21875 50.550781 13.019531 50.664062 12.726562 50.820312 C 15.097656 52.511719 17.390625 54.171875 19.707031 55.796875 C 21.859375 57.300781 24.109375 58.632812 26.488281 59.734375 C 26.695312 59.832031 26.917969 59.898438 27.136719 59.980469 C 27.167969 59.929688 27.195312 59.882812 27.226562 59.835938 C 27.113281 59.707031 27.007812 59.566406 26.882812 59.453125 C 26.503906 59.105469 26.101562 58.789062 25.742188 58.429688 C 23.5625 56.265625 21.738281 53.832031 20.300781 51.042969 M 8.488281 16.074219 C 8.585938 16.535156 8.679688 16.996094 8.789062 17.453125 C 8.867188 17.765625 8.976562 18.070312 9.066406 18.378906 C 9.167969 18.738281 9.230469 19.109375 9.363281 19.453125 C 9.609375 20.109375 9.890625 20.746094 10.160156 21.390625 C 10.234375 21.570312 10.316406 21.742188 10.40625 21.9375 C 10.496094 21.878906 10.546875 21.847656 10.597656 21.8125 C 12.046875 20.84375 13.433594 19.796875 14.640625 18.523438 C 15.265625 17.863281 15.933594 17.242188 16.53125 16.558594 C 16.992188 16.03125 16.886719 15.589844 16.277344 15.242188 C 16 15.082031 15.6875 14.984375 15.40625 14.832031 C 14.460938 14.308594 13.527344 13.769531 12.585938 13.242188 C 12.164062 13.003906 11.714844 12.890625 11.230469 12.984375 C 10.050781 13.210938 8.730469 14.667969 8.488281 16.074219 M 47.851562 16.503906 C 49.589844 18.183594 51.324219 19.867188 53.0625 21.546875 C 53.886719 22.335938 54.386719 22.183594 54.691406 21.066406 C 55.050781 19.742188 55.417969 18.421875 55.769531 17.09375 C 55.925781 16.507812 55.886719 15.933594 55.621094 15.378906 C 55.238281 14.589844 54.597656 14.039062 53.949219 13.492188 C 53.367188 13 52.71875 12.957031 52.035156 13.234375 C 51.863281 13.304688 51.691406 13.378906 51.527344 13.464844 C 50.359375 14.0625 49.1875 14.660156 48.023438 15.261719 C 47.402344 15.585938 47.351562 15.910156 47.851562 16.503906 M 45.578125 49.480469 C 45.25 49.773438 44.808594 50.003906 44.613281 50.367188 C 42.820312 53.691406 40.699219 56.746094 37.816406 59.210938 C 37.730469 59.285156 37.679688 59.40625 37.613281 59.503906 C 37.652344 59.546875 37.6875 59.589844 37.726562 59.632812 C 42.753906 57.347656 47.179688 54.105469 51.578125 50.683594 C 50.570312 50.160156 49.605469 49.707031 48.6875 49.175781 C 47.996094 48.773438 47.324219 48.804688 46.621094 49.046875 C 46.285156 49.164062 45.957031 49.316406 45.578125 49.480469 M 9.210938 46.832031 C 9.378906 47.195312 9.550781 47.550781 9.707031 47.921875 C 10.035156 48.714844 10.632812 49.25 11.378906 49.597656 C 11.613281 49.707031 11.984375 49.730469 12.21875 49.621094 C 13.914062 48.84375 15.589844 48.023438 17.269531 47.21875 C 17.273438 47.167969 17.277344 47.121094 17.28125 47.074219 C 17.167969 46.980469 17.046875 46.894531 16.941406 46.792969 C 15.15625 45.09375 13.375 43.390625 11.59375 41.691406 C 10.789062 40.925781 10.195312 41.074219 9.835938 42.125 C 9.824219 42.148438 9.820312 42.171875 9.816406 42.195312 C 9.605469 42.847656 9.460938 43.535156 9.171875 44.148438 C 8.746094 45.050781 8.792969 45.90625 9.210938 46.832031 M 51.074219 43.453125 C 49.789062 44.714844 48.601562 46.078125 47.054688 47.097656 C 47.226562 47.1875 47.347656 47.25 47.46875 47.308594 C 48.90625 48.050781 50.347656 48.785156 51.785156 49.53125 C 52.40625 49.851562 53.023438 49.8125 53.460938 49.253906 C 54.019531 48.542969 54.554688 47.792969 54.976562 47 C 55.546875 45.933594 55.535156 44.800781 55.089844 43.664062 C 54.902344 43.191406 54.769531 42.695312 54.617188 42.207031 C 54.496094 41.824219 54.378906 41.4375 54.257812 41.035156 C 53.027344 41.644531 52.039062 42.492188 51.074219 43.453125 M 5.84375 30.898438 C 8.59375 30.898438 11.347656 30.898438 14.167969 30.898438 C 13.535156 29.945312 12.964844 29.050781 12.355469 28.183594 C 11.871094 27.492188 11.367188 26.804688 10.816406 26.164062 C 10.179688 25.421875 9.171875 25.414062 8.558594 26.082031 C 7.386719 27.359375 6.207031 28.625 5.050781 29.917969 C 4.816406 30.179688 4.679688 30.527344 4.460938 30.898438 C 4.976562 30.898438 5.371094 30.898438 5.84375 30.898438 M 12.050781 35.53125 C 12.765625 34.488281 13.476562 33.449219 14.226562 32.355469 C 10.828125 32.355469 7.554688 32.355469 4.242188 32.355469 C 4.292969 32.425781 4.316406 32.46875 4.347656 32.5 C 5.769531 34 7.164062 35.527344 8.625 36.988281 C 9.4375 37.800781 10.359375 37.695312 11.109375 36.804688 C 11.4375 36.417969 11.71875 35.984375 12.050781 35.53125 M 54.730469 37.519531 C 55.238281 37.472656 55.636719 37.21875 55.988281 36.863281 C 56.859375 35.976562 57.761719 35.113281 58.601562 34.191406 C 59.058594 33.6875 59.414062 33.085938 59.847656 32.480469 C 56.613281 32.480469 53.472656 32.480469 50.269531 32.480469 C 51.355469 33.96875 52.390625 35.402344 53.441406 36.820312 C 53.742188 37.222656 54.152344 37.476562 54.730469 37.519531 M 52.902344 27.25 C 52.039062 28.429688 51.175781 29.609375 50.296875 30.804688 C 53.554688 30.804688 56.757812 30.804688 60 30.804688 C 59.9375 30.71875 59.90625 30.667969 59.867188 30.625 C 58.988281 29.65625 58.113281 28.683594 57.222656 27.726562 C 56.714844 27.179688 56.203125 26.628906 55.640625 26.140625 C 55.019531 25.605469 54.402344 25.632812 53.808594 26.191406 C 53.484375 26.492188 53.21875 26.867188 52.902344 27.25 M 4.101562 26.746094 C 4.003906 27.652344 3.90625 28.558594 3.808594 29.464844 C 3.855469 29.484375 3.90625 29.503906 3.957031 29.519531 C 3.988281 29.46875 4.007812 29.40625 4.046875 29.363281 C 5.183594 28.105469 6.304688 26.832031 7.464844 25.601562 C 8.277344 24.742188 8.609375 23.734375 8.636719 22.574219 C 8.675781 20.742188 7.828125 19.125 7.472656 17.378906 C 5.894531 20.324219 4.648438 23.371094 4.101562 26.746094 M 5.0625 40.339844 C 5.636719 42.179688 6.316406 43.964844 7.429688 45.519531 C 7.789062 44.667969 8.144531 43.835938 8.492188 43 C 8.558594 42.839844 8.628906 42.664062 8.625 42.5 C 8.613281 41.726562 8.617188 40.953125 8.542969 40.1875 C 8.4375 39.117188 8.363281 38.007812 7.328125 37.328125 C 7.285156 37.300781 7.253906 37.261719 7.21875 37.226562 C 6.238281 36.171875 5.105469 35.25 4.339844 34 C 4.328125 33.976562 4.285156 33.96875 4.214844 33.9375 C 4.042969 36.132812 4.457031 38.21875 5.0625 40.339844 M 56.828125 17.707031 C 56.738281 17.992188 56.65625 18.28125 56.5625 18.566406 C 56.113281 19.945312 55.730469 21.332031 55.882812 22.820312 C 55.996094 23.941406 56.257812 24.996094 57.023438 25.847656 C 57.988281 26.917969 58.992188 27.957031 59.984375 29.007812 C 60.042969 29.066406 60.136719 29.09375 60.3125 29.191406 C 60.253906 24.898438 58.875 21.113281 56.902344 17.402344 C 56.867188 17.558594 56.855469 17.605469 56.828125 17.707031 M 58.730469 41.792969 C 59.375 40.109375 59.863281 38.382812 60.1875 36.609375 C 60.3125 35.914062 60.320312 35.191406 60.382812 34.480469 C 60.34375 34.476562 60.300781 34.46875 60.261719 34.460938 C 59.046875 35.410156 57.851562 36.386719 56.9375 37.65625 C 56.324219 38.507812 55.910156 39.445312 55.808594 40.511719 C 55.671875 41.921875 56.078125 43.207031 56.644531 44.460938 C 56.773438 44.746094 56.925781 45.019531 57.070312 45.300781 C 57.109375 45.300781 57.152344 45.300781 57.195312 45.304688 C 57.699219 44.152344 58.207031 43 58.730469 41.792969 M 16.492188 55.125 C 16.34375 55.035156 16.195312 54.941406 16.046875 54.859375 C 15.835938 54.738281 15.765625 54.847656 15.734375 55.078125 C 16.644531 55.667969 17.550781 56.261719 18.449219 56.84375 C 18.648438 56.652344 18.675781 56.539062 18.457031 56.402344 C 17.8125 55.996094 17.175781 55.570312 16.492188 55.125 M 48.871094 54.324219 C 48.222656 54.800781 47.570312 55.273438 46.925781 55.753906 C 46.847656 55.8125 46.820312 55.929688 46.769531 56.019531 C 46.8125 56.050781 46.851562 56.082031 46.890625 56.113281 C 47.710938 55.574219 48.53125 55.035156 49.363281 54.484375 C 49.207031 54.296875 49.144531 54.058594 48.871094 54.324219 M 15.246094 54.21875 C 15.113281 54.242188 14.980469 54.269531 14.851562 54.296875 C 14.855469 54.320312 14.859375 54.347656 14.863281 54.375 C 15.03125 54.453125 15.199219 54.527344 15.460938 54.648438 C 15.371094 54.445312 15.328125 54.347656 15.246094 54.21875 Z M 15.246094 54.21875 "/>
<path style=" stroke:none;fill-rule:nonzero;fill:rgb(99.607843%,99.607843%,99.607843%);fill-opacity:1;" d="M 17.1875 36.179688 C 17.109375 35.273438 17 34.402344 16.972656 33.53125 C 16.949219 32.886719 17.3125 32.496094 17.949219 32.425781 C 18.539062 32.359375 19.136719 32.359375 19.726562 32.335938 C 19.960938 32.328125 20.195312 32.332031 20.484375 32.332031 C 20.484375 31.929688 20.496094 31.546875 20.472656 31.167969 C 20.46875 31.097656 20.316406 30.988281 20.226562 30.980469 C 19.78125 30.949219 19.335938 30.945312 18.890625 30.933594 C 18.679688 30.925781 18.46875 30.929688 18.261719 30.910156 C 17.484375 30.832031 17.019531 30.351562 16.96875 29.570312 C 16.953125 29.320312 16.96875 29.070312 16.96875 28.789062 C 16.441406 28.789062 15.9375 28.789062 15.402344 28.789062 C 15.34375 29.121094 15.28125 29.460938 15.195312 29.933594 C 14.640625 29.355469 14.085938 28.878906 13.65625 28.300781 C 13.109375 27.566406 12.648438 26.757812 12.175781 25.960938 C 11.8125 25.347656 11.890625 24.65625 11.929688 23.984375 C 11.980469 23.136719 12.3125 22.4375 12.953125 21.855469 C 14.296875 20.632812 15.605469 19.367188 16.929688 18.125 C 17 18.058594 17.085938 18.015625 17.234375 17.910156 C 16.765625 20.0625 16.316406 22.132812 15.847656 24.28125 C 16.527344 23.5625 17.046875 22.820312 17.492188 22.019531 C 18.042969 21.027344 18.332031 19.949219 18.523438 18.832031 C 18.71875 17.699219 19.371094 16.964844 20.46875 16.59375 C 20.820312 16.476562 21.109375 16.171875 21.472656 15.917969 C 21.28125 15.769531 21.175781 15.6875 21.070312 15.605469 C 20.199219 14.933594 20.023438 14.40625 20.460938 13.394531 C 20.882812 12.425781 21.351562 11.472656 21.859375 10.542969 C 22.945312 8.539062 24.222656 6.667969 25.761719 4.980469 C 27.199219 3.40625 28.964844 2.738281 31.054688 2.867188 C 31.164062 2.875 31.273438 2.898438 31.425781 2.921875 C 31.425781 3.492188 31.425781 4.054688 31.425781 4.613281 C 31.417969 7.070312 31.394531 9.527344 31.417969 11.984375 C 31.425781 12.777344 31.496094 13.582031 31.640625 14.363281 C 31.734375 14.863281 32.019531 15.332031 32.230469 15.835938 C 32.410156 15.792969 32.5625 15.753906 32.726562 15.710938 C 32.726562 11.484375 32.726562 7.277344 32.726562 3.035156 C 33.738281 2.761719 34.738281 2.75 35.730469 3.039062 C 37.101562 3.441406 38.15625 4.316406 38.941406 5.472656 C 40.089844 7.179688 41.152344 8.941406 42.25 10.683594 C 42.753906 11.484375 43.230469 12.304688 43.746094 13.101562 C 44.132812 13.699219 44.152344 14.289062 43.8125 14.902344 C 43.761719 14.988281 43.714844 15.078125 43.667969 15.164062 C 43.355469 15.742188 43.355469 15.851562 43.816406 16.324219 C 44.113281 16.625 44.441406 16.894531 44.777344 17.15625 C 45.480469 17.703125 45.847656 18.414062 45.988281 19.308594 C 46.339844 21.566406 46.777344 23.8125 47.132812 26.070312 C 47.324219 27.265625 47.453125 28.476562 47.542969 29.683594 C 47.597656 30.453125 47.320312 30.769531 46.550781 30.851562 C 45.839844 30.933594 45.117188 30.910156 44.398438 30.933594 C 44.277344 30.9375 44.15625 30.933594 44.007812 30.933594 C 43.980469 31.40625 43.953125 31.847656 43.921875 32.34375 C 44.308594 32.320312 44.671875 32.285156 45.039062 32.273438 C 46.695312 32.210938 46.945312 32.367188 47.550781 33.933594 C 47.683594 34.285156 47.863281 34.5 48.246094 34.539062 C 48.625 34.578125 48.800781 34.480469 48.90625 34.109375 C 48.941406 33.976562 48.957031 33.839844 48.96875 33.703125 C 48.976562 33.585938 48.96875 33.464844 48.96875 33.285156 C 49.851562 33.882812 50.578125 34.566406 51.113281 35.410156 C 51.664062 36.28125 52.160156 37.195312 52.609375 38.125 C 53.058594 39.046875 52.726562 40.347656 51.949219 41.046875 C 50.65625 42.210938 49.359375 43.375 48.066406 44.542969 C 47.65625 44.917969 47.253906 45.296875 46.851562 45.675781 C 46.820312 45.660156 46.789062 45.640625 46.757812 45.625 C 46.777344 45.511719 46.792969 45.398438 46.824219 45.289062 C 47.324219 43.402344 47.828125 41.515625 48.332031 39.628906 C 48.347656 39.582031 48.378906 39.527344 48.367188 39.484375 C 48.335938 39.382812 48.285156 39.285156 48.242188 39.1875 C 48.148438 39.238281 48.011719 39.265625 47.96875 39.34375 C 47.042969 41.007812 46.070312 42.652344 45.46875 44.480469 C 45.1875 45.328125 44.703125 46.003906 43.878906 46.421875 C 43.703125 46.511719 43.578125 46.816406 43.542969 47.039062 C 43.441406 47.746094 43.398438 48.457031 43.316406 49.167969 C 43.292969 49.386719 43.253906 49.621094 43.160156 49.816406 C 41.46875 53.292969 39.257812 56.347656 36.113281 58.636719 C 35.601562 59.007812 35.0625 59.351562 34.519531 59.671875 C 33.496094 60.269531 32.828125 59.875 32.824219 58.683594 C 32.816406 55.5 32.8125 52.316406 32.808594 49.132812 C 32.808594 49.007812 32.808594 48.886719 32.808594 48.726562 C 32.347656 48.726562 31.910156 48.726562 31.417969 48.726562 C 31.417969 49.523438 31.417969 50.308594 31.417969 51.09375 C 31.414062 53.726562 31.417969 56.359375 31.402344 58.988281 C 31.394531 60.042969 31.003906 60.265625 30.070312 59.769531 C 28.046875 58.691406 26.34375 57.21875 24.886719 55.441406 C 23.363281 53.585938 22.109375 51.546875 21.011719 49.40625 C 20.59375 48.589844 20.433594 47.710938 20.542969 46.789062 C 20.589844 46.425781 20.496094 46.195312 20.136719 46.015625 C 19.261719 45.585938 18.878906 44.773438 18.691406 43.859375 C 18.214844 41.558594 17.753906 39.257812 17.292969 36.953125 C 17.246094 36.710938 17.226562 36.460938 17.1875 36.179688 M 26.554688 38.46875 C 26.535156 38.453125 26.511719 38.441406 26.464844 38.382812 C 26.0625 37.660156 25.660156 36.929688 25.253906 36.207031 C 24.972656 35.703125 24.679688 35.203125 24.328125 34.589844 C 24.941406 34.589844 25.457031 34.589844 26.027344 34.601562 C 26.164062 34.589844 26.296875 34.578125 26.472656 34.554688 C 26.5 34.554688 26.53125 34.554688 26.609375 34.578125 C 26.703125 34.574219 26.796875 34.570312 26.925781 34.566406 C 26.953125 34.570312 26.976562 34.574219 27.066406 34.601562 C 27.25 34.59375 27.433594 34.585938 27.683594 34.574219 C 27.855469 34.578125 28.027344 34.582031 28.265625 34.605469 C 28.441406 34.597656 28.621094 34.59375 28.871094 34.582031 C 29.730469 34.582031 30.59375 34.582031 31.488281 34.582031 C 31.488281 32.105469 31.488281 29.679688 31.488281 27.21875 C 33.453125 27.21875 35.386719 27.21875 37.367188 27.21875 C 36.890625 26.433594 36.449219 25.695312 36 24.964844 C 33.054688 20.164062 30.109375 15.363281 27.15625 10.5625 C 27.089844 10.457031 26.941406 10.332031 26.835938 10.335938 C 26.597656 10.34375 26.621094 10.558594 26.59375 10.707031 C 26.511719 10.703125 26.375 10.671875 26.355469 10.707031 C 26.136719 11.070312 25.949219 11.453125 25.726562 11.8125 C 25.339844 12.433594 24.925781 13.035156 24.542969 13.65625 C 23.824219 14.820312 23.125 15.996094 22.414062 17.164062 C 20.6875 19.996094 18.957031 22.828125 17.230469 25.65625 C 16.90625 26.183594 16.59375 26.71875 16.234375 27.320312 C 18.308594 27.320312 20.304688 27.320312 22.335938 27.320312 C 22.335938 33.953125 22.335938 40.539062 22.335938 47.15625 C 23.867188 47.15625 25.363281 47.15625 26.90625 47.179688 C 28.511719 47.179688 30.117188 47.179688 31.765625 47.179688 C 30.429688 44.605469 28.929688 42.160156 27.304688 39.734375 C 27.253906 39.652344 27.207031 39.570312 27.160156 39.484375 C 27.160156 39.484375 27.15625 39.484375 27.160156 39.441406 C 27.136719 39.429688 27.117188 39.417969 27.089844 39.40625 C 27.089844 39.40625 27.09375 39.398438 27.097656 39.351562 C 27.046875 39.316406 26.996094 39.28125 26.929688 39.214844 C 26.929688 39.214844 26.90625 39.191406 26.90625 39.136719 C 26.820312 38.976562 26.730469 38.816406 26.644531 38.65625 C 26.644531 38.65625 26.640625 38.652344 26.640625 38.609375 C 26.613281 38.578125 26.589844 38.546875 26.566406 38.507812 C 26.566406 38.507812 26.558594 38.507812 26.554688 38.46875 M 37.285156 23.761719 C 37.285156 23.761719 37.289062 23.761719 37.292969 23.820312 C 37.414062 24.050781 37.535156 24.28125 37.652344 24.519531 C 37.652344 24.519531 37.660156 24.519531 37.660156 24.5625 C 37.683594 24.578125 37.707031 24.59375 37.738281 24.660156 C 38.488281 26 39.242188 27.34375 40.023438 28.738281 C 39.179688 28.738281 38.382812 28.738281 37.527344 28.730469 C 37.472656 28.730469 37.414062 28.730469 37.292969 28.714844 C 35.886719 28.714844 34.476562 28.714844 33.027344 28.714844 C 33.027344 31.144531 33.027344 33.566406 33.027344 36.019531 C 31.007812 36.019531 29.03125 36.019531 27.003906 36.019531 C 27.09375 36.171875 27.152344 36.277344 27.214844 36.378906 C 29.558594 40.214844 31.890625 44.050781 34.246094 47.878906 C 35.308594 49.605469 36.414062 51.304688 37.523438 53.0625 C 37.570312 53.046875 37.636719 53.042969 37.660156 53.007812 C 37.933594 52.617188 38.210938 52.230469 38.46875 51.828125 C 38.792969 51.332031 39.097656 50.820312 39.410156 50.316406 C 40.234375 48.992188 41.058594 47.671875 41.875 46.347656 C 43.632812 43.488281 45.390625 40.628906 47.144531 37.769531 C 47.507812 37.179688 47.867188 36.585938 48.269531 35.921875 C 46.207031 35.921875 44.222656 35.921875 42.210938 35.921875 C 42.210938 29.761719 42.210938 23.652344 42.210938 17.527344 C 42.085938 17.511719 41.992188 17.5 41.847656 17.457031 C 41.667969 17.46875 41.484375 17.476562 41.238281 17.496094 C 41.058594 17.496094 40.882812 17.492188 40.660156 17.457031 C 40.476562 17.46875 40.292969 17.476562 40.046875 17.496094 C 39.871094 17.492188 39.695312 17.488281 39.464844 17.453125 C 38.878906 17.460938 38.292969 17.464844 37.667969 17.484375 C 37.632812 17.488281 37.59375 17.488281 37.480469 17.472656 C 37.453125 17.472656 37.429688 17.476562 37.363281 17.46875 C 37.335938 17.464844 37.308594 17.464844 37.21875 17.445312 C 37.089844 17.449219 36.964844 17.449219 36.765625 17.453125 C 35.585938 17.453125 34.402344 17.453125 33.132812 17.453125 C 34.433594 19.429688 35.683594 21.332031 36.933594 23.289062 C 37.054688 23.445312 37.171875 23.601562 37.285156 23.761719 Z M 37.285156 23.761719 "/>
<path style=" stroke:none;fill-rule:nonzero;fill:rgb(99.607843%,99.607843%,99.607843%);fill-opacity:1;" d="M 14.832031 8.824219 C 17.660156 6.613281 20.761719 5.007812 24.269531 3.9375 C 24.15625 4.144531 24.101562 4.257812 24.039062 4.367188 C 22.839844 6.382812 21.636719 8.394531 20.449219 10.414062 C 20.109375 10.996094 19.820312 11.605469 19.496094 12.195312 C 19.058594 12.980469 18.449219 13.578125 17.625 13.953125 C 17.289062 14.109375 16.960938 14.152344 16.625 14.015625 C 16.007812 13.765625 15.382812 13.527344 14.789062 13.230469 C 14.203125 12.9375 13.628906 12.609375 13.085938 12.242188 C 12.308594 11.710938 12.269531 11.046875 12.96875 10.414062 C 13.566406 9.871094 14.195312 9.363281 14.832031 8.824219 Z M 14.832031 8.824219 "/>
<path style=" stroke:none;fill-rule:nonzero;fill:rgb(99.607843%,99.607843%,99.607843%);fill-opacity:1;" d="M 42.582031 4.875 C 44.953125 5.828125 47.019531 7.25 49.046875 8.726562 C 49.722656 9.214844 50.375 9.730469 51.035156 10.238281 C 51.125 10.304688 51.210938 10.378906 51.292969 10.453125 C 51.980469 11.09375 51.957031 11.730469 51.210938 12.300781 C 50.9375 12.507812 50.632812 12.683594 50.324219 12.84375 C 49.429688 13.300781 48.535156 13.75 47.625 14.175781 C 47.449219 14.253906 47.1875 14.261719 47.007812 14.195312 C 46.328125 13.933594 45.777344 13.476562 45.394531 12.859375 C 44.84375 11.96875 44.355469 11.039062 43.8125 10.148438 C 42.597656 8.15625 41.367188 6.179688 40.140625 4.195312 C 40.0625 4.070312 39.988281 3.941406 39.867188 3.746094 C 40.808594 4.136719 41.683594 4.5 42.582031 4.875 Z M 42.582031 4.875 "/>
<path style=" stroke:none;fill-rule:nonzero;fill:rgb(98.823529%,99.215686%,99.607843%);fill-opacity:1;" d="M 20.308594 51.070312 C 21.738281 53.832031 23.5625 56.265625 25.742188 58.429688 C 26.101562 58.789062 26.503906 59.105469 26.882812 59.453125 C 27.007812 59.566406 27.113281 59.707031 27.226562 59.835938 C 27.195312 59.882812 27.167969 59.929688 27.136719 59.980469 C 26.917969 59.898438 26.695312 59.832031 26.488281 59.734375 C 24.109375 58.632812 21.859375 57.300781 19.707031 55.796875 C 17.390625 54.171875 15.097656 52.511719 12.726562 50.820312 C 13.019531 50.664062 13.21875 50.550781 13.421875 50.445312 C 14.492188 49.894531 15.5625 49.351562 16.625 48.789062 C 16.90625 48.636719 17.167969 48.605469 17.433594 48.757812 C 18.171875 49.183594 18.929688 49.589844 19.621094 50.085938 C 19.921875 50.300781 20.078125 50.71875 20.308594 51.070312 Z M 20.308594 51.070312 "/>
<path style=" stroke:none;fill-rule:nonzero;fill:rgb(99.215686%,99.607843%,99.607843%);fill-opacity:1;" d="M 8.488281 16.042969 C 8.730469 14.667969 10.050781 13.210938 11.230469 12.984375 C 11.714844 12.890625 12.164062 13.003906 12.585938 13.242188 C 13.527344 13.769531 14.460938 14.308594 15.40625 14.832031 C 15.6875 14.984375 16 15.082031 16.277344 15.242188 C 16.886719 15.589844 16.992188 16.03125 16.53125 16.558594 C 15.933594 17.242188 15.265625 17.863281 14.640625 18.523438 C 13.433594 19.796875 12.046875 20.84375 10.597656 21.8125 C 10.546875 21.847656 10.496094 21.878906 10.40625 21.9375 C 10.316406 21.742188 10.234375 21.570312 10.160156 21.390625 C 9.890625 20.746094 9.609375 20.109375 9.363281 19.453125 C 9.230469 19.109375 9.167969 18.738281 9.066406 18.378906 C 8.976562 18.070312 8.867188 17.765625 8.789062 17.453125 C 8.679688 16.996094 8.585938 16.535156 8.488281 16.042969 Z M 8.488281 16.042969 "/>
<path style=" stroke:none;fill-rule:nonzero;fill:rgb(99.215686%,99.607843%,99.607843%);fill-opacity:1;" d="M 47.835938 16.484375 C 47.351562 15.910156 47.402344 15.585938 48.023438 15.261719 C 49.1875 14.660156 50.359375 14.0625 51.527344 13.464844 C 51.691406 13.378906 51.863281 13.304688 52.035156 13.234375 C 52.71875 12.957031 53.367188 13 53.949219 13.492188 C 54.597656 14.039062 55.238281 14.589844 55.621094 15.378906 C 55.886719 15.933594 55.925781 16.507812 55.769531 17.09375 C 55.417969 18.421875 55.050781 19.742188 54.691406 21.066406 C 54.386719 22.183594 53.886719 22.335938 53.0625 21.546875 C 51.324219 19.867188 49.589844 18.183594 47.835938 16.484375 Z M 47.835938 16.484375 "/>
<path style=" stroke:none;fill-rule:nonzero;fill:rgb(98.823529%,99.215686%,99.607843%);fill-opacity:1;" d="M 45.601562 49.46875 C 45.957031 49.316406 46.285156 49.164062 46.621094 49.046875 C 47.324219 48.804688 47.996094 48.773438 48.6875 49.175781 C 49.605469 49.707031 50.570312 50.160156 51.578125 50.683594 C 47.179688 54.105469 42.753906 57.347656 37.726562 59.632812 C 37.6875 59.589844 37.652344 59.546875 37.613281 59.503906 C 37.679688 59.40625 37.730469 59.285156 37.816406 59.210938 C 40.699219 56.746094 42.820312 53.691406 44.613281 50.367188 C 44.808594 50.003906 45.25 49.773438 45.601562 49.46875 Z M 45.601562 49.46875 "/>
<path style=" stroke:none;fill-rule:nonzero;fill:rgb(99.607843%,99.607843%,99.607843%);fill-opacity:1;" d="M 9.199219 46.804688 C 8.792969 45.90625 8.746094 45.050781 9.171875 44.148438 C 9.460938 43.535156 9.605469 42.847656 9.816406 42.195312 C 9.820312 42.171875 9.824219 42.148438 9.835938 42.125 C 10.195312 41.074219 10.789062 40.925781 11.59375 41.691406 C 13.375 43.390625 15.15625 45.09375 16.941406 46.792969 C 17.046875 46.894531 17.167969 46.980469 17.28125 47.074219 C 17.277344 47.121094 17.273438 47.167969 17.269531 47.21875 C 15.589844 48.023438 13.914062 48.84375 12.21875 49.621094 C 11.984375 49.730469 11.613281 49.707031 11.378906 49.597656 C 10.632812 49.25 10.035156 48.714844 9.707031 47.921875 C 9.550781 47.550781 9.378906 47.195312 9.199219 46.804688 Z M 9.199219 46.804688 "/>
<path style=" stroke:none;fill-rule:nonzero;fill:rgb(99.607843%,99.607843%,99.607843%);fill-opacity:1;" d="M 51.089844 43.433594 C 52.039062 42.492188 53.027344 41.644531 54.257812 41.035156 C 54.378906 41.4375 54.496094 41.824219 54.617188 42.207031 C 54.769531 42.695312 54.902344 43.191406 55.089844 43.664062 C 55.535156 44.800781 55.546875 45.933594 54.976562 47 C 54.554688 47.792969 54.019531 48.542969 53.460938 49.253906 C 53.023438 49.8125 52.40625 49.851562 51.785156 49.53125 C 50.347656 48.785156 48.90625 48.050781 47.46875 47.308594 C 47.347656 47.25 47.226562 47.1875 47.054688 47.097656 C 48.601562 46.078125 49.789062 44.714844 51.089844 43.433594 Z M 51.089844 43.433594 "/>
<path style=" stroke:none;fill-rule:nonzero;fill:rgb(98.823529%,99.607843%,99.607843%);fill-opacity:1;" d="M 17.601562 45.628906 C 17.34375 45.414062 17.074219 45.21875 16.828125 44.992188 C 15.304688 43.59375 13.78125 42.199219 12.28125 40.777344 C 12.082031 40.585938 11.972656 40.246094 11.917969 39.957031 C 11.664062 38.523438 12.097656 37.25 12.933594 36.121094 C 13.585938 35.238281 14.300781 34.40625 15.03125 33.496094 C 15.210938 34.328125 15.378906 35.09375 15.546875 35.855469 C 16.058594 38.234375 16.574219 40.613281 17.082031 42.992188 C 17.234375 43.699219 17.359375 44.414062 17.503906 45.121094 C 17.53125 45.253906 17.597656 45.375 17.636719 45.546875 C 17.617188 45.601562 17.609375 45.613281 17.601562 45.628906 Z M 17.601562 45.628906 "/>
<path style=" stroke:none;fill-rule:nonzero;fill:rgb(98.823529%,99.607843%,99.607843%);fill-opacity:1;" d="M 47.265625 17.738281 C 48.015625 18.410156 48.78125 19.0625 49.503906 19.761719 C 50.402344 20.625 51.257812 21.535156 52.140625 22.410156 C 52.632812 22.894531 52.722656 23.488281 52.671875 24.136719 C 52.566406 25.417969 52.179688 26.558594 51.269531 27.519531 C 50.683594 28.140625 50.238281 28.898438 49.714844 29.578125 C 49.609375 29.71875 49.433594 29.800781 49.210938 29.972656 C 49.097656 29.011719 49.023438 28.179688 48.898438 27.355469 C 48.550781 25.121094 48.191406 22.886719 47.8125 20.660156 C 47.652344 19.710938 47.429688 18.777344 47.242188 17.792969 C 47.25 17.753906 47.265625 17.738281 47.265625 17.738281 Z M 47.265625 17.738281 "/>
<path style=" stroke:none;fill-rule:nonzero;fill:rgb(99.215686%,99.607843%,99.607843%);fill-opacity:1;" d="M 5.804688 30.898438 C 5.371094 30.898438 4.976562 30.898438 4.460938 30.898438 C 4.679688 30.527344 4.816406 30.179688 5.050781 29.917969 C 6.207031 28.625 7.386719 27.359375 8.558594 26.082031 C 9.171875 25.414062 10.179688 25.421875 10.816406 26.164062 C 11.367188 26.804688 11.871094 27.492188 12.355469 28.183594 C 12.964844 29.050781 13.535156 29.945312 14.167969 30.898438 C 11.347656 30.898438 8.59375 30.898438 5.804688 30.898438 Z M 5.804688 30.898438 "/>
<path style=" stroke:none;fill-rule:nonzero;fill:rgb(99.607843%,99.607843%,100%);fill-opacity:1;" d="M 12.035156 35.550781 C 11.71875 35.984375 11.4375 36.417969 11.109375 36.804688 C 10.359375 37.695312 9.4375 37.800781 8.625 36.988281 C 7.164062 35.527344 5.769531 34 4.347656 32.5 C 4.316406 32.46875 4.292969 32.425781 4.242188 32.355469 C 7.554688 32.355469 10.828125 32.355469 14.226562 32.355469 C 13.476562 33.449219 12.765625 34.488281 12.035156 35.550781 Z M 12.035156 35.550781 "/>
<path style=" stroke:none;fill-rule:nonzero;fill:rgb(99.215686%,99.215686%,99.607843%);fill-opacity:1;" d="M 54.699219 37.519531 C 54.152344 37.476562 53.742188 37.222656 53.441406 36.820312 C 52.390625 35.402344 51.355469 33.96875 50.269531 32.480469 C 53.472656 32.480469 56.613281 32.480469 59.847656 32.480469 C 59.414062 33.085938 59.058594 33.6875 58.601562 34.191406 C 57.761719 35.113281 56.859375 35.976562 55.988281 36.863281 C 55.636719 37.21875 55.238281 37.472656 54.699219 37.519531 Z M 54.699219 37.519531 "/>
<path style=" stroke:none;fill-rule:nonzero;fill:rgb(99.215686%,99.607843%,99.607843%);fill-opacity:1;" d="M 52.917969 27.230469 C 53.21875 26.867188 53.484375 26.492188 53.808594 26.191406 C 54.402344 25.632812 55.019531 25.605469 55.640625 26.140625 C 56.203125 26.628906 56.714844 27.179688 57.222656 27.726562 C 58.113281 28.683594 58.988281 29.65625 59.867188 30.625 C 59.90625 30.667969 59.9375 30.71875 60 30.804688 C 56.757812 30.804688 53.554688 30.804688 50.296875 30.804688 C 51.175781 29.609375 52.039062 28.429688 52.917969 27.230469 Z M 52.917969 27.230469 "/>
<path style=" stroke:none;fill-rule:nonzero;fill:rgb(98.823529%,99.215686%,99.607843%);fill-opacity:1;" d="M 4.105469 26.714844 C 4.648438 23.371094 5.894531 20.324219 7.472656 17.378906 C 7.828125 19.125 8.675781 20.742188 8.636719 22.574219 C 8.609375 23.734375 8.277344 24.742188 7.464844 25.601562 C 6.304688 26.832031 5.183594 28.105469 4.046875 29.363281 C 4.007812 29.40625 3.988281 29.46875 3.957031 29.519531 C 3.90625 29.503906 3.855469 29.484375 3.808594 29.464844 C 3.90625 28.558594 4.003906 27.652344 4.105469 26.714844 Z M 4.105469 26.714844 "/>
<path style=" stroke:none;fill-rule:nonzero;fill:rgb(98.823529%,99.215686%,99.607843%);fill-opacity:1;" d="M 5.058594 40.3125 C 4.457031 38.21875 4.042969 36.132812 4.214844 33.9375 C 4.285156 33.96875 4.328125 33.976562 4.339844 34 C 5.105469 35.25 6.238281 36.171875 7.21875 37.226562 C 7.253906 37.261719 7.285156 37.300781 7.328125 37.328125 C 8.363281 38.007812 8.4375 39.117188 8.542969 40.1875 C 8.617188 40.953125 8.613281 41.726562 8.625 42.5 C 8.628906 42.664062 8.558594 42.839844 8.492188 43 C 8.144531 43.835938 7.789062 44.667969 7.429688 45.519531 C 6.316406 43.964844 5.636719 42.179688 5.058594 40.3125 Z M 5.058594 40.3125 "/>
<path style=" stroke:none;fill-rule:nonzero;fill:rgb(98.823529%,99.607843%,99.607843%);fill-opacity:1;" d="M 56.835938 17.679688 C 56.855469 17.605469 56.867188 17.558594 56.902344 17.402344 C 58.875 21.113281 60.253906 24.898438 60.3125 29.191406 C 60.136719 29.09375 60.042969 29.066406 59.984375 29.007812 C 58.992188 27.957031 57.988281 26.917969 57.023438 25.847656 C 56.257812 24.996094 55.996094 23.941406 55.882812 22.820312 C 55.730469 21.332031 56.113281 19.945312 56.5625 18.566406 C 56.65625 18.28125 56.738281 17.992188 56.835938 17.679688 Z M 56.835938 17.679688 "/>
<path style=" stroke:none;fill-rule:nonzero;fill:rgb(98.823529%,99.215686%,99.607843%);fill-opacity:1;" d="M 58.722656 41.820312 C 58.207031 43 57.699219 44.152344 57.195312 45.304688 C 57.152344 45.300781 57.109375 45.300781 57.070312 45.300781 C 56.925781 45.019531 56.773438 44.746094 56.644531 44.460938 C 56.078125 43.207031 55.671875 41.921875 55.808594 40.511719 C 55.910156 39.445312 56.324219 38.507812 56.9375 37.65625 C 57.851562 36.386719 59.046875 35.410156 60.261719 34.460938 C 60.300781 34.46875 60.34375 34.476562 60.382812 34.480469 C 60.320312 35.191406 60.3125 35.914062 60.1875 36.609375 C 59.863281 38.382812 59.375 40.109375 58.722656 41.820312 Z M 58.722656 41.820312 "/>
<path style=" stroke:none;fill-rule:nonzero;fill:rgb(92.156863%,92.156863%,92.156863%);fill-opacity:1;" d="M 16.515625 55.140625 C 17.175781 55.570312 17.8125 55.996094 18.457031 56.402344 C 18.675781 56.539062 18.648438 56.652344 18.449219 56.84375 C 17.550781 56.261719 16.644531 55.667969 15.734375 55.078125 C 15.765625 54.847656 15.835938 54.738281 16.046875 54.859375 C 16.195312 54.941406 16.34375 55.035156 16.515625 55.140625 Z M 16.515625 55.140625 "/>
<path style=" stroke:none;fill-rule:nonzero;fill:rgb(92.156863%,92.156863%,92.156863%);fill-opacity:1;" d="M 48.890625 54.308594 C 49.144531 54.058594 49.207031 54.296875 49.363281 54.484375 C 48.53125 55.035156 47.710938 55.574219 46.890625 56.113281 C 46.851562 56.082031 46.8125 56.050781 46.769531 56.019531 C 46.820312 55.929688 46.847656 55.8125 46.925781 55.753906 C 47.570312 55.273438 48.222656 54.800781 48.890625 54.308594 Z M 48.890625 54.308594 "/>
<path style=" stroke:none;fill-rule:nonzero;fill:rgb(92.156863%,92.156863%,92.156863%);fill-opacity:1;" d="M 15.265625 54.234375 C 15.328125 54.347656 15.371094 54.445312 15.460938 54.648438 C 15.199219 54.527344 15.03125 54.453125 14.863281 54.375 C 14.859375 54.347656 14.855469 54.320312 14.851562 54.296875 C 14.980469 54.269531 15.113281 54.242188 15.265625 54.234375 Z M 15.265625 54.234375 "/>
<path style=" stroke:none;fill-rule:nonzero;fill:rgb(87.058824%,87.058824%,87.058824%);fill-opacity:1;" d="M 46.191406 56.53125 C 46.277344 56.371094 46.363281 56.214844 46.480469 55.996094 C 46.585938 56.109375 46.65625 56.1875 46.753906 56.292969 C 46.566406 56.398438 46.421875 56.480469 46.238281 56.554688 C 46.207031 56.546875 46.191406 56.53125 46.191406 56.53125 Z M 46.191406 56.53125 "/>
<path style=" stroke:none;fill-rule:nonzero;fill:rgb(98.823529%,99.607843%,99.607843%);fill-opacity:1;" d="M 17.640625 45.574219 C 17.667969 45.582031 17.675781 45.609375 17.6875 45.636719 C 17.671875 45.640625 17.652344 45.644531 17.617188 45.636719 C 17.609375 45.613281 17.617188 45.601562 17.640625 45.574219 Z M 17.640625 45.574219 "/>
<path style=" stroke:none;fill-rule:nonzero;fill:rgb(98.823529%,99.607843%,99.607843%);fill-opacity:1;" d="M 47.242188 17.765625 C 47.222656 17.753906 47.210938 17.734375 47.199219 17.714844 C 47.21875 17.710938 47.234375 17.707031 47.261719 17.722656 C 47.265625 17.738281 47.25 17.753906 47.242188 17.765625 Z M 47.242188 17.765625 "/>
<path style=" stroke:none;fill-rule:nonzero;fill:rgb(87.058824%,87.058824%,87.058824%);fill-opacity:1;" d="M 46.214844 56.554688 C 46.207031 56.578125 46.191406 56.59375 46.179688 56.609375 C 46.171875 56.589844 46.167969 56.570312 46.175781 56.539062 C 46.191406 56.53125 46.207031 56.546875 46.214844 56.554688 Z M 46.214844 56.554688 "/>
<path style=" stroke:none;fill-rule:nonzero;fill:rgb(93.725491%,41.176471%,4.705882%);fill-opacity:1;" d="M 37.554688 17.492188 C 37.59375 17.488281 37.632812 17.488281 37.71875 17.488281 C 38.351562 17.488281 38.933594 17.488281 39.519531 17.484375 C 39.695312 17.488281 39.871094 17.492188 40.109375 17.5 C 40.351562 17.5 40.527344 17.492188 40.707031 17.488281 C 40.882812 17.492188 41.058594 17.496094 41.300781 17.503906 C 41.542969 17.5 41.71875 17.492188 41.898438 17.488281 C 41.992188 17.5 42.085938 17.511719 42.210938 17.527344 C 42.210938 23.652344 42.210938 29.761719 42.210938 35.921875 C 44.222656 35.921875 46.207031 35.921875 48.269531 35.921875 C 47.867188 36.585938 47.507812 37.179688 47.144531 37.769531 C 45.390625 40.628906 43.632812 43.488281 41.875 46.347656 C 41.058594 47.671875 40.234375 48.992188 39.410156 50.316406 C 39.097656 50.820312 38.792969 51.332031 38.46875 51.828125 C 38.210938 52.230469 37.933594 52.617188 37.660156 53.007812 C 37.636719 53.042969 37.570312 53.046875 37.527344 53.011719 C 37.546875 52.890625 37.578125 52.820312 37.578125 52.746094 C 37.582031 51.890625 37.582031 51.035156 37.578125 50.179688 C 37.578125 50.074219 37.53125 49.964844 37.53125 49.839844 C 37.5625 49.71875 37.582031 49.621094 37.582031 49.523438 C 37.582031 46.828125 37.578125 44.136719 37.582031 41.441406 C 37.582031 37.207031 37.582031 32.972656 37.585938 28.738281 C 38.382812 28.738281 39.179688 28.738281 40.023438 28.738281 C 39.242188 27.34375 38.488281 26 37.730469 24.613281 C 37.703125 24.550781 37.679688 24.535156 37.660156 24.519531 C 37.660156 24.519531 37.652344 24.519531 37.65625 24.484375 C 37.636719 24.242188 37.585938 24.035156 37.585938 23.824219 C 37.578125 22.003906 37.582031 20.183594 37.578125 18.363281 C 37.574219 18.234375 37.53125 18.105469 37.507812 17.976562 C 37.507812 17.976562 37.507812 17.976562 37.515625 17.949219 C 37.535156 17.777344 37.542969 17.632812 37.554688 17.492188 Z M 37.554688 17.492188 "/>
<path style=" stroke:none;fill-rule:nonzero;fill:rgb(26.274511%,68.235296%,29.803923%);fill-opacity:1;" d="M 25.96875 34.589844 C 25.457031 34.589844 24.941406 34.589844 24.328125 34.589844 C 24.679688 35.203125 24.972656 35.703125 25.253906 36.207031 C 25.660156 36.929688 26.0625 37.660156 26.484375 38.425781 C 26.515625 38.488281 26.53125 38.5 26.558594 38.507812 C 26.558594 38.507812 26.566406 38.507812 26.5625 38.535156 C 26.589844 38.589844 26.613281 38.621094 26.640625 38.652344 C 26.640625 38.652344 26.644531 38.65625 26.640625 38.691406 C 26.640625 39.859375 26.640625 40.992188 26.648438 42.125 C 26.648438 42.242188 26.6875 42.359375 26.710938 42.515625 C 26.71875 43.230469 26.710938 43.910156 26.734375 44.589844 C 26.761719 45.445312 26.816406 46.300781 26.859375 47.15625 C 25.363281 47.15625 23.867188 47.15625 22.335938 47.15625 C 22.335938 40.539062 22.335938 33.953125 22.335938 27.320312 C 20.304688 27.320312 18.308594 27.320312 16.234375 27.320312 C 16.59375 26.71875 16.90625 26.183594 17.230469 25.65625 C 18.957031 22.828125 20.6875 19.996094 22.414062 17.164062 C 23.125 15.996094 23.824219 14.820312 24.542969 13.65625 C 24.925781 13.035156 25.339844 12.433594 25.726562 11.8125 C 25.949219 11.453125 26.136719 11.070312 26.355469 10.707031 C 26.375 10.671875 26.511719 10.703125 26.613281 10.757812 C 26.636719 11.59375 26.640625 12.375 26.617188 13.183594 C 26.585938 13.328125 26.566406 13.453125 26.570312 13.574219 C 26.589844 14.472656 26.632812 15.367188 26.640625 16.261719 C 26.652344 17.722656 26.644531 19.183594 26.648438 20.644531 C 26.648438 20.753906 26.683594 20.859375 26.707031 21.003906 C 26.707031 21.601562 26.707031 22.164062 26.683594 22.746094 C 26.660156 22.816406 26.644531 22.867188 26.644531 22.917969 C 26.644531 25.589844 26.644531 28.265625 26.648438 30.941406 C 26.648438 31.027344 26.699219 31.117188 26.730469 31.242188 C 26.730469 32.171875 26.738281 33.0625 26.722656 33.957031 C 26.71875 34.15625 26.617188 34.355469 26.558594 34.550781 C 26.53125 34.554688 26.5 34.554688 26.421875 34.550781 C 26.238281 34.5625 26.105469 34.578125 25.96875 34.589844 Z M 25.96875 34.589844 "/>
<path style=" stroke:none;fill-rule:nonzero;fill:rgb(0.392157%,58.039218%,28.235295%);fill-opacity:1;" d="M 26.640625 13.160156 C 26.640625 12.375 26.636719 11.59375 26.632812 10.773438 C 26.621094 10.558594 26.597656 10.34375 26.835938 10.335938 C 26.941406 10.332031 27.089844 10.457031 27.15625 10.5625 C 30.109375 15.363281 33.054688 20.164062 36 24.964844 C 36.449219 25.695312 36.890625 26.433594 37.367188 27.21875 C 35.386719 27.21875 33.453125 27.21875 31.488281 27.21875 C 31.488281 29.679688 31.488281 32.105469 31.488281 34.582031 C 30.59375 34.582031 29.730469 34.582031 28.808594 34.574219 C 28.566406 34.574219 28.382812 34.578125 28.199219 34.585938 C 28.027344 34.582031 27.855469 34.578125 27.625 34.570312 C 27.378906 34.566406 27.191406 34.570312 27.003906 34.578125 C 26.976562 34.574219 26.953125 34.570312 26.898438 34.535156 C 26.832031 33.386719 26.800781 32.273438 26.773438 31.125 C 26.78125 29.847656 26.777344 28.609375 26.78125 27.34375 C 26.765625 27.210938 26.746094 27.101562 26.722656 26.960938 C 26.714844 25.527344 26.710938 24.125 26.703125 22.726562 C 26.707031 22.164062 26.707031 21.601562 26.707031 20.96875 C 26.683594 18.320312 26.664062 15.742188 26.640625 13.160156 Z M 26.640625 13.160156 "/>
<path style=" stroke:none;fill-rule:nonzero;fill:rgb(96.078432%,55.686277%,10.196079%);fill-opacity:1;" d="M 37.507812 49.859375 C 37.53125 49.964844 37.578125 50.074219 37.578125 50.179688 C 37.582031 51.035156 37.582031 51.890625 37.578125 52.746094 C 37.578125 52.820312 37.546875 52.890625 37.515625 52.988281 C 36.414062 51.304688 35.308594 49.605469 34.246094 47.878906 C 31.890625 44.050781 29.558594 40.214844 27.214844 36.378906 C 27.152344 36.277344 27.09375 36.171875 27.003906 36.019531 C 29.03125 36.019531 31.007812 36.019531 33.027344 36.019531 C 33.027344 33.566406 33.027344 31.144531 33.027344 28.714844 C 34.476562 28.714844 35.886719 28.714844 37.328125 28.757812 C 37.410156 29.839844 37.46875 30.878906 37.5 31.917969 C 37.511719 32.289062 37.433594 32.660156 37.433594 33.035156 C 37.449219 34.632812 37.496094 36.234375 37.5 37.835938 C 37.511719 41.84375 37.507812 45.851562 37.507812 49.859375 Z M 37.507812 49.859375 "/>
<path style=" stroke:none;fill-rule:nonzero;fill:rgb(1.960784%,58.823532%,29.411766%);fill-opacity:1;" d="M 26.882812 47.167969 C 26.816406 46.300781 26.761719 45.445312 26.734375 44.589844 C 26.710938 43.910156 26.71875 43.230469 26.710938 42.480469 C 26.710938 41.300781 26.710938 40.191406 26.710938 39.042969 C 26.808594 39.117188 26.855469 39.152344 26.90625 39.191406 C 26.90625 39.191406 26.929688 39.214844 26.941406 39.253906 C 26.996094 39.332031 27.046875 39.367188 27.09375 39.398438 C 27.09375 39.398438 27.089844 39.40625 27.09375 39.425781 C 27.113281 39.457031 27.136719 39.46875 27.15625 39.484375 C 27.15625 39.484375 27.160156 39.484375 27.15625 39.511719 C 27.203125 39.621094 27.253906 39.703125 27.304688 39.785156 C 28.929688 42.160156 30.429688 44.605469 31.765625 47.179688 C 30.117188 47.179688 28.511719 47.179688 26.882812 47.167969 Z M 26.882812 47.167969 "/>
<path style=" stroke:none;fill-rule:nonzero;fill:rgb(95.686275%,56.078434%,11.372549%);fill-opacity:1;" d="M 36.933594 23.234375 C 35.683594 21.332031 34.433594 19.429688 33.132812 17.453125 C 34.402344 17.453125 35.585938 17.453125 36.824219 17.464844 C 37.015625 17.46875 37.148438 17.464844 37.28125 17.460938 C 37.308594 17.464844 37.335938 17.464844 37.386719 17.5 C 37.445312 17.683594 37.476562 17.832031 37.507812 17.976562 C 37.507812 17.976562 37.507812 17.976562 37.507812 18.007812 C 37.484375 18.574219 37.445312 19.105469 37.441406 19.636719 C 37.433594 21.0625 37.4375 22.488281 37.4375 23.886719 C 37.414062 23.867188 37.351562 23.8125 37.289062 23.761719 C 37.289062 23.761719 37.285156 23.761719 37.28125 23.738281 C 37.164062 23.550781 37.050781 23.390625 36.933594 23.234375 Z M 36.933594 23.234375 "/>
<path style=" stroke:none;fill-rule:nonzero;fill:rgb(82.352942%,52.941179%,29.803923%);fill-opacity:1;" d="M 37.53125 49.839844 C 37.507812 45.851562 37.511719 41.84375 37.5 37.835938 C 37.496094 36.234375 37.449219 34.632812 37.433594 33.035156 C 37.433594 32.660156 37.511719 32.289062 37.5 31.917969 C 37.46875 30.878906 37.410156 29.839844 37.359375 28.765625 C 37.414062 28.730469 37.472656 28.730469 37.558594 28.734375 C 37.582031 32.972656 37.582031 37.207031 37.582031 41.441406 C 37.578125 44.136719 37.582031 46.828125 37.582031 49.523438 C 37.582031 49.621094 37.5625 49.71875 37.53125 49.839844 Z M 37.53125 49.839844 "/>
<path style=" stroke:none;fill-rule:nonzero;fill:rgb(82.352942%,52.941179%,29.803923%);fill-opacity:1;" d="M 37.289062 23.789062 C 37.351562 23.8125 37.414062 23.867188 37.4375 23.886719 C 37.4375 22.488281 37.433594 21.0625 37.441406 19.636719 C 37.445312 19.105469 37.484375 18.574219 37.507812 18.007812 C 37.53125 18.105469 37.574219 18.234375 37.578125 18.363281 C 37.582031 20.183594 37.578125 22.003906 37.585938 23.824219 C 37.585938 24.035156 37.636719 24.242188 37.65625 24.480469 C 37.535156 24.28125 37.414062 24.050781 37.289062 23.789062 Z M 37.289062 23.789062 "/>
<path style=" stroke:none;fill-rule:nonzero;fill:rgb(70.19608%,70.19608%,69.803923%);fill-opacity:1;" d="M 26.765625 31.160156 C 26.800781 32.273438 26.832031 33.386719 26.878906 34.535156 C 26.796875 34.570312 26.703125 34.574219 26.585938 34.566406 C 26.617188 34.355469 26.71875 34.15625 26.722656 33.957031 C 26.738281 33.0625 26.730469 32.171875 26.734375 31.234375 C 26.742188 31.175781 26.753906 31.167969 26.765625 31.160156 Z M 26.765625 31.160156 "/>
<path style=" stroke:none;fill-rule:nonzero;fill:rgb(41.568628%,64.705884%,44.705883%);fill-opacity:1;" d="M 26.90625 39.164062 C 26.855469 39.152344 26.808594 39.117188 26.710938 39.042969 C 26.710938 40.191406 26.710938 41.300781 26.707031 42.445312 C 26.6875 42.359375 26.648438 42.242188 26.648438 42.125 C 26.640625 40.992188 26.640625 39.859375 26.640625 38.691406 C 26.730469 38.816406 26.820312 38.976562 26.90625 39.164062 Z M 26.90625 39.164062 "/>
<path style=" stroke:none;fill-rule:nonzero;fill:rgb(74.901962%,74.901962%,74.509805%);fill-opacity:1;" d="M 39.492188 17.46875 C 38.933594 17.488281 38.351562 17.488281 37.734375 17.480469 C 38.292969 17.464844 38.878906 17.460938 39.492188 17.46875 Z M 39.492188 17.46875 "/>
<path style=" stroke:none;fill-rule:nonzero;fill:rgb(82.352942%,52.941179%,29.803923%);fill-opacity:1;" d="M 36.933594 23.261719 C 37.050781 23.390625 37.164062 23.550781 37.285156 23.734375 C 37.171875 23.601562 37.054688 23.445312 36.933594 23.261719 Z M 36.933594 23.261719 "/>
<path style=" stroke:none;fill-rule:nonzero;fill:rgb(70.19608%,70.19608%,69.803923%);fill-opacity:1;" d="M 28.230469 34.59375 C 28.382812 34.578125 28.566406 34.574219 28.777344 34.578125 C 28.621094 34.59375 28.441406 34.597656 28.230469 34.59375 Z M 28.230469 34.59375 "/>
<path style=" stroke:none;fill-rule:nonzero;fill:rgb(74.901962%,74.901962%,74.509805%);fill-opacity:1;" d="M 40.683594 17.472656 C 40.527344 17.492188 40.351562 17.5 40.144531 17.496094 C 40.292969 17.476562 40.476562 17.46875 40.683594 17.472656 Z M 40.683594 17.472656 "/>
<path style=" stroke:none;fill-rule:nonzero;fill:rgb(74.901962%,74.901962%,74.509805%);fill-opacity:1;" d="M 41.871094 17.472656 C 41.71875 17.492188 41.542969 17.5 41.335938 17.496094 C 41.484375 17.476562 41.667969 17.46875 41.871094 17.472656 Z M 41.871094 17.472656 "/>
<path style=" stroke:none;fill-rule:nonzero;fill:rgb(70.19608%,70.19608%,69.803923%);fill-opacity:1;" d="M 27.035156 34.589844 C 27.191406 34.570312 27.378906 34.566406 27.589844 34.570312 C 27.433594 34.585938 27.25 34.59375 27.035156 34.589844 Z M 27.035156 34.589844 "/>
<path style=" stroke:none;fill-rule:nonzero;fill:rgb(74.901962%,74.901962%,74.509805%);fill-opacity:1;" d="M 37.515625 17.949219 C 37.476562 17.832031 37.445312 17.683594 37.410156 17.503906 C 37.429688 17.476562 37.453125 17.472656 37.515625 17.484375 C 37.542969 17.632812 37.535156 17.777344 37.515625 17.949219 Z M 37.515625 17.949219 "/>
<path style=" stroke:none;fill-rule:nonzero;fill:rgb(74.901962%,74.901962%,74.509805%);fill-opacity:1;" d="M 37.25 17.453125 C 37.148438 17.464844 37.015625 17.46875 36.859375 17.460938 C 36.964844 17.449219 37.089844 17.449219 37.25 17.453125 Z M 37.25 17.453125 "/>
<path style=" stroke:none;fill-rule:nonzero;fill:rgb(41.568628%,64.705884%,44.705883%);fill-opacity:1;" d="M 27.304688 39.761719 C 27.253906 39.703125 27.203125 39.621094 27.15625 39.515625 C 27.207031 39.570312 27.253906 39.652344 27.304688 39.761719 Z M 27.304688 39.761719 "/>
<path style=" stroke:none;fill-rule:nonzero;fill:rgb(70.19608%,70.19608%,69.803923%);fill-opacity:1;" d="M 26 34.597656 C 26.105469 34.578125 26.238281 34.5625 26.402344 34.558594 C 26.296875 34.578125 26.164062 34.589844 26 34.597656 Z M 26 34.597656 "/>
<path style=" stroke:none;fill-rule:nonzero;fill:rgb(41.568628%,64.705884%,44.705883%);fill-opacity:1;" d="M 27.09375 39.375 C 27.046875 39.367188 26.996094 39.332031 26.945312 39.273438 C 26.996094 39.28125 27.046875 39.316406 27.09375 39.375 Z M 27.09375 39.375 "/>
<path style=" stroke:none;fill-rule:nonzero;fill:rgb(41.568628%,64.705884%,44.705883%);fill-opacity:1;" d="M 26.640625 38.632812 C 26.613281 38.621094 26.589844 38.589844 26.5625 38.539062 C 26.589844 38.546875 26.613281 38.578125 26.640625 38.632812 Z M 26.640625 38.632812 "/>
<path style=" stroke:none;fill-rule:nonzero;fill:rgb(82.352942%,52.941179%,29.803923%);fill-opacity:1;" d="M 37.660156 24.542969 C 37.679688 24.535156 37.703125 24.550781 37.726562 24.585938 C 37.707031 24.59375 37.683594 24.578125 37.660156 24.542969 Z M 37.660156 24.542969 "/>
<path style=" stroke:none;fill-rule:nonzero;fill:rgb(41.568628%,64.705884%,44.705883%);fill-opacity:1;" d="M 27.15625 39.464844 C 27.136719 39.46875 27.113281 39.457031 27.09375 39.421875 C 27.117188 39.417969 27.136719 39.429688 27.15625 39.464844 Z M 27.15625 39.464844 "/>
<path style=" stroke:none;fill-rule:nonzero;fill:rgb(41.568628%,64.705884%,44.705883%);fill-opacity:1;" d="M 26.558594 38.488281 C 26.53125 38.5 26.515625 38.488281 26.496094 38.445312 C 26.511719 38.441406 26.535156 38.453125 26.558594 38.488281 Z M 26.558594 38.488281 "/>
<path style=" stroke:none;fill-rule:nonzero;fill:rgb(41.568628%,64.705884%,44.705883%);fill-opacity:1;" d="M 26.773438 31.125 C 26.753906 31.167969 26.742188 31.175781 26.730469 31.199219 C 26.699219 31.117188 26.648438 31.027344 26.648438 30.941406 C 26.644531 28.265625 26.644531 25.589844 26.644531 22.917969 C 26.644531 22.867188 26.660156 22.816406 26.683594 22.746094 C 26.710938 24.125 26.714844 25.527344 26.722656 26.988281 C 26.738281 27.160156 26.757812 27.265625 26.777344 27.371094 C 26.777344 28.609375 26.78125 29.847656 26.773438 31.125 Z M 26.773438 31.125 "/>
<path style=" stroke:none;fill-rule:nonzero;fill:rgb(41.568628%,64.705884%,44.705883%);fill-opacity:1;" d="M 26.617188 13.183594 C 26.664062 15.742188 26.683594 18.320312 26.703125 20.933594 C 26.683594 20.859375 26.648438 20.753906 26.648438 20.644531 C 26.644531 19.183594 26.652344 17.722656 26.640625 16.261719 C 26.632812 15.367188 26.589844 14.472656 26.570312 13.574219 C 26.566406 13.453125 26.585938 13.328125 26.617188 13.183594 Z M 26.617188 13.183594 "/>
<path style=" stroke:none;fill-rule:nonzero;fill:rgb(26.274511%,68.235296%,29.803923%);fill-opacity:1;" d="M 26.78125 27.34375 C 26.757812 27.265625 26.738281 27.160156 26.722656 27.023438 C 26.746094 27.101562 26.765625 27.210938 26.78125 27.34375 Z M 26.78125 27.34375 "/>
</g>
</svg>
